{"title":"Original Sin 2001 DVDrip English Klam","uid":6383752,"size":1110440606,"categoryP":"video","categoryS":"movies","magnet":"?xt=urn:btih:94ffb06dc6a454734b4a28dfa996e85f531c4d48&amp;dn=Original+Sin+2001+DVDrip+English+Klam&amp;tr=udp%3A%2F%2Ftracker.openbittorrent.com%3A80&amp;tr=udp%3A%2F%2Fopen.demonii.com%3A1337&amp;tr=udp%3A%2F%2Ftracker.coppersurfer.tk%3A6969&amp;tr=udp%3A%2F%2Fexodus.desync.com%3A6969","seeders":2,"leechers":0,"uploader":"Klambake","files":-1,"time":1305123813,"description":"With: Antonio Banderas, Angelina Jolie and Thomas Jane\n\nCuba, eind 19e eeuw: Luis Antonio Vargas, een rijke koffiehandelaar, heeft besloten om een Amerikaanse vrouw te trouwen. Wanneer hij bij de haven aankomt om Julia Russell te ontmoeten, blijkt dat zij niet de gewone vrouw is die hij verwachtte. Blijer dan ooit tevoren begint hij samen met zijn vrouw een nieuw leven. Er blijken echter nog meer verrassingen in het verschiet te liggen...\n\nWhen a man selects a mail order bride, he is surprised to see the beauty who appears before him. She alleges that she sent false photos to him to assure that he would love her for what she is and not for her beauty. However, what she is a con artist, prostitute, and actress, who teams with a fellow actor to steal money from men. What she does not expect is that she falls in love with her new husband and ultimately must decide between him and her sadistic former lover. Contains explicit sex including sadistic acts as Thomas Jane cuts Jolie's back with a knife as part of their lovemaking. \n\nGeneral:\n\nComplete name                    : Original Sin\\Original Sin.avi\nFormat                           : AVI\nFormat/Info                      : Audio Video Interleave\nFile size                        : 1.03 GiB\nDuration                         : 1h 51mn\nOverall bit rate                 : 1 328 Kbps\n\nVideo:\n\nFormat                           : MPEG-4 Visual\nFormat profile                   : Simple@L3\nFormat settings, BVOP            : No\nFormat settings, QPel            : No\nFormat settings, GMC             : No warppoints\nFormat settings, Matrix          : Default (H.263)\nCodec ID                         : XVID\nCodec ID/Hint                    : XviD\nDuration                         : 1h 51mn\nBit rate                         : 1 093 Kbps\nWidth                            : 720 pixels\nHeight                           : 304 pixels\nDisplay aspect ratio             : 2.35:1\nFrame rate                       : 25.000 fps\nColor space                      : YUV\nChroma subsampling               : 4:2:0\nBit depth                        : 8 bits\nScan type                        : Progressive\nBits/(Pixel*Frame)               : 0.200\nStream size                      : 871 MiB (82%)\nWriting library                  : XviD 1.1.2 (UTC 2006-11-01)\n\nAudio:\n\nFormat                           : AC-3\nFormat/Info                      : Audio Coding 3\nMode extension                   : CM (complete main)\nCodec ID                         : 2000\nDuration                         : 1h 51mn\nBit rate mode                    : Constant\nBit rate                         : 224 Kbps\nChannel(s)                       : 2 channels\nChannel positions                : Front: L R\nSampling rate                    : 48.0 KHz\nBit depth                        : 16 bits\nStream size                      : 179 MiB (17%)\nAlignment                        : Aligned on interleaves\nInterleave, duration             : 32 ms (0.80 video frame)\nInterleave, preload duration     : 736 ms\n\n\n","torrent":{"xt":"urn:btih:94ffb06dc6a454734b4a28dfa996e85f531c4d48","amp;dn":"Original+Sin+2001+DVDrip+English+Klam","amp;tr":["udp%3A%2F%2Ftracker.openbittorrent.com%3A80","udp%3A%2F%2Fopen.demonii.com%3A1337","udp%3A%2F%2Ftracker.coppersurfer.tk%3A6969","udp%3A%2F%2Fexodus.desync.com%3A6969"],"infoHash":"94ffb06dc6a454734b4a28dfa996e85f531c4d48","infoHashBuffer":{"type":"Buffer","data":[148,255,176,109,198,164,84,115,75,74,40,223,169,150,232,95,83,28,77,72]},"announce":[],"urlList":[]}}